<svg width="54" height="34" viewBox="0 0 54 34" fill="none" xmlns="http://www.w3.org/2000/svg">
<path d="M53 0.833984C53.0531 0.833985 53.1035 0.859369 53.1348 0.902344C53.1658 0.945186 53.1744 1.00041 53.1582 1.05078C51.416 6.43765 47.5948 14.4565 42.1992 21.1318C36.8071 27.8028 29.814 33.166 21.7246 33.166C13.6406 33.166 8.50405 28.9381 5.34961 23.8818C2.19956 18.8326 1.01919 12.9499 0.833984 9.59375C0.829914 9.51691 0.879292 9.44752 0.953125 9.42578C1.02713 9.40406 1.10646 9.43586 1.14453 9.50293C1.91732 10.8662 3.40235 12.0645 5.26562 12.8301C7.12661 13.5946 9.35194 13.9216 11.5908 13.5566C16.0538 12.8291 20.6115 9.34182 22.4277 0.966797L22.4492 0.914062C22.4789 0.866433 22.5312 0.835002 22.5898 0.834961H35.5811C35.6312 0.835106 35.6785 0.858412 35.71 0.897461C35.7415 0.936631 35.7539 0.987984 35.7432 1.03711C34.2939 7.67347 29.81 16.5701 20.8252 21.2695C23.5713 20.0533 26.0496 18.4356 28.2578 16.3486C32.0753 12.7407 35.0978 7.72476 37.3066 0.949219L37.3301 0.90332C37.3607 0.861329 37.4099 0.835093 37.4639 0.834961L53 0.833984ZM14.5889 0.835938H21.0488C21.0975 0.835965 21.1442 0.85743 21.1758 0.894531C21.2071 0.931536 21.2206 0.98048 21.2129 1.02832C20.6782 4.31429 18.6812 8.0519 15.7207 10.3154C14.2383 11.4488 12.51 12.2159 10.6006 12.3662C8.6899 12.5166 6.60906 12.0481 4.42578 10.7314C4.36773 10.6963 4.33667 10.6295 4.34766 10.5625C4.64617 8.77454 5.30489 6.61918 5.97168 4.78809C6.63638 2.96275 7.31816 1.4347 7.66797 0.90918L7.69434 0.87793C7.72455 0.85052 7.76489 0.834961 7.80664 0.834961C8.02484 0.834961 11.3337 0.835804 14.5889 0.835938Z" fill="white" stroke="black" stroke-width="0.332328" stroke-miterlimit="16" stroke-linejoin="round"/>
</svg>
